<svg id="图层_1" data-name="图层 1" xmlns="http://www.w3.org/2000/svg" viewBox="0 0 521.67 309.73"><defs><style>.cls-1{fill:#606;}.cls-2{fill:#1e3c87;}.cls-3{fill:#fff;stroke:#231815;stroke-miterlimit:10;}</style></defs><title>scmorpher_icon3</title><path class="cls-1" d="M76.85,394.14q-4.81,26.34.29,50.17,9,42,55.37,62.32,34.58,15.17,64.6,2.49t48-46.46l36.11,15.82q-27.81,49-71,64.26t-94.1-7Q55.33,509,40.36,455.37a149,149,0,0,1-3.75-61.23" transform="translate(-35.05 -239.22)"/><path class="cls-1" d="M514.91,394q4.83-26.34-.29-50.16-9-42-55.37-62.33-34.58-15.15-64.6-2.49t-48,46.47l-18.92-8.29-17.18-7.54q27.81-49,71-64.25t94.1,7q60.81,26.66,75.79,80.34a148.94,148.94,0,0,1,3.73,61.33" transform="translate(-35.05 -239.22)"/><circle class="cls-2" cx="130.56" cy="154.87" r="25.66"/><circle class="cls-1" cx="393.11" cy="154.87" r="25.66"/><path class="cls-3" d="M280.28,375.45" transform="translate(-35.05 -239.22)"/><path class="cls-2" d="M316.37,391.54" transform="translate(-35.05 -239.22)"/><path class="cls-2" d="M514.91,394a187.61,187.61,0,0,1-13.11,41.62Q481.48,482,444.39,503.59t-82.7,1.59q-29.26-12.82-43.29-36.65T311,414.1l5.87-24.2q12.4-44.85-8.3-81.33t-64.79-55.81q-60.43-26.49-112.27-.73T52.69,339.36Q40.3,367.64,36.61,394.14H76.85A188.83,188.83,0,0,1,90,352.52q20.33-46.36,57.42-67.94T230.07,283q29.27,12.83,43.29,36.64t7.4,54.44l.09,0-6,24.15q-12.42,44.85,8.29,81.34t64.8,55.8q60.42,26.49,112.26.73t78.82-87.32q12.38-28.23,16.07-54.68Z" transform="translate(-35.05 -239.22)"/></svg>